<svg xmlns="http://www.w3.org/2000/svg" xmlns:xlink="http://www.w3.org/1999/xlink" width="500" zoomAndPan="magnify" viewBox="0 0 375 374.999991" height="500" preserveAspectRatio="xMidYMid meet" version="1.0"><defs><g/><clipPath id="bc3a3c468b"><path d="M 41 171 L 60 171 L 60 185 L 41 185 Z M 41 171 " clip-rule="nonzero"/></clipPath><clipPath id="8bf0523916"><path d="M 37.5 176.53125 L 44.511719 166.238281 L 63.816406 179.378906 L 56.804688 189.675781 Z M 37.5 176.53125 " clip-rule="nonzero"/></clipPath><clipPath id="d47f3b4ad9"><path d="M 37.5 176.53125 L 44.511719 166.238281 L 63.816406 179.378906 L 56.804688 189.675781 Z M 37.5 176.53125 " clip-rule="nonzero"/></clipPath><clipPath id="2a6c6be6fc"><path d="M 85 163 L 97 163 L 97 177 L 85 177 Z M 85 163 " clip-rule="nonzero"/></clipPath><clipPath id="2dde78e137"><path d="M 92.578125 158.992188 L 101.171875 165.699219 L 89.195312 181.039062 L 80.605469 174.332031 Z M 92.578125 158.992188 " clip-rule="nonzero"/></clipPath><clipPath id="f83553a425"><path d="M 92.578125 158.992188 L 101.171875 165.699219 L 89.195312 181.039062 L 80.605469 174.332031 Z M 92.578125 158.992188 " clip-rule="nonzero"/></clipPath><clipPath id="4460d3c83e"><path d="M 78 182 L 103 182 L 103 197 L 78 197 Z M 78 182 " clip-rule="nonzero"/></clipPath><clipPath id="9fd5945a3c"><path d="M 100.304688 177.171875 L 105.972656 190.835938 L 80.085938 201.574219 L 74.417969 187.914062 Z M 100.304688 177.171875 " clip-rule="nonzero"/></clipPath><clipPath id="5279d03d0b"><path d="M 100.304688 177.171875 L 105.972656 190.835938 L 80.085938 201.574219 L 74.417969 187.914062 Z M 100.304688 177.171875 " clip-rule="nonzero"/></clipPath><clipPath id="cdb192b093"><path d="M 71 197 L 83 197 L 83 215 L 71 215 Z M 71 197 " clip-rule="nonzero"/></clipPath><clipPath id="98adadf9e1"><path d="M 66.3125 200.039062 L 76.277344 193.957031 L 87.636719 212.558594 L 77.671875 218.644531 Z M 66.3125 200.039062 " clip-rule="nonzero"/></clipPath><clipPath id="e0d9edf151"><path d="M 66.3125 200.039062 L 76.277344 193.957031 L 87.636719 212.558594 L 77.671875 218.644531 Z M 66.3125 200.039062 " clip-rule="nonzero"/></clipPath><clipPath id="a51c4343a4"><path d="M 56 182 L 72 182 L 72 200 L 56 200 Z M 56 182 " clip-rule="nonzero"/></clipPath><clipPath id="c051e7e85a"><path d="M 67.109375 177.117188 L 76.933594 185.984375 L 60.246094 204.476562 L 50.421875 195.609375 Z M 67.109375 177.117188 " clip-rule="nonzero"/></clipPath><clipPath id="ea07afd19b"><path d="M 67.109375 177.117188 L 76.933594 185.984375 L 60.246094 204.476562 L 50.421875 195.609375 Z M 67.109375 177.117188 " clip-rule="nonzero"/></clipPath><clipPath id="8ce3a384b4"><path d="M 73 171 L 81 171 L 81 185 L 73 185 Z M 73 171 " clip-rule="nonzero"/></clipPath><clipPath id="2148a79122"><path d="M 71.15625 172.632812 L 78.519531 170.097656 L 83.328125 184.082031 L 75.96875 186.617188 Z M 71.15625 172.632812 " clip-rule="nonzero"/></clipPath><clipPath id="29863304c7"><path d="M 71.15625 172.632812 L 78.519531 170.097656 L 83.328125 184.082031 L 75.96875 186.617188 Z M 71.15625 172.632812 " clip-rule="nonzero"/></clipPath><clipPath id="41704ceca1"><path d="M 76 157 L 82 157 L 82 167 L 76 167 Z M 76 157 " clip-rule="nonzero"/></clipPath><clipPath id="1380129a8d"><path d="M 77.949219 156.195312 L 83.816406 158.28125 L 80.164062 168.550781 L 74.296875 166.464844 Z M 77.949219 156.195312 " clip-rule="nonzero"/></clipPath><clipPath id="a98d31eed2"><path d="M 77.949219 156.195312 L 83.816406 158.28125 L 80.164062 168.550781 L 74.296875 166.464844 Z M 77.949219 156.195312 " clip-rule="nonzero"/></clipPath><clipPath id="99e1fbdf9f"><path d="M 86 199 L 96 199 L 96 205 L 86 205 Z M 86 199 " clip-rule="nonzero"/></clipPath><clipPath id="21a4efd89e"><path d="M 96.851562 200.617188 L 94.96875 206.554688 L 84.582031 203.257812 L 86.464844 197.320312 Z M 96.851562 200.617188 " clip-rule="nonzero"/></clipPath><clipPath id="fb2c38cc8a"><path d="M 96.851562 200.617188 L 94.96875 206.554688 L 84.582031 203.257812 L 86.464844 197.320312 Z M 96.851562 200.617188 " clip-rule="nonzero"/></clipPath><clipPath id="e1be105553"><path d="M 39 189 L 53 189 L 53 198 L 39 198 Z M 39 189 " clip-rule="nonzero"/></clipPath><clipPath id="22824baeb7"><path d="M 37.5 194.679688 L 40.199219 187.378906 L 54.070312 192.511719 L 51.371094 199.8125 Z M 37.5 194.679688 " clip-rule="nonzero"/></clipPath><clipPath id="5f3f93d58b"><path d="M 37.5 194.679688 L 40.199219 187.378906 L 54.070312 192.511719 L 51.371094 199.8125 Z M 37.5 194.679688 " clip-rule="nonzero"/></clipPath><clipPath id="8adedf788c"><path d="M 50 204 L 65 204 L 65 216 L 50 216 Z M 50 204 " clip-rule="nonzero"/></clipPath><clipPath id="76a180887e"><path d="M 62.140625 199.800781 L 68.542969 208.621094 L 52.792969 220.054688 L 46.390625 211.234375 Z M 62.140625 199.800781 " clip-rule="nonzero"/></clipPath><clipPath id="5bcb1ac098"><path d="M 62.140625 199.800781 L 68.542969 208.621094 L 52.792969 220.054688 L 46.390625 211.234375 Z M 62.140625 199.800781 " clip-rule="nonzero"/></clipPath><clipPath id="e414c324c3"><path d="M 56 152 L 71 152 L 71 177 L 56 177 Z M 56 152 " clip-rule="nonzero"/></clipPath><clipPath id="c15f1ee80d"><path d="M 51.988281 153.648438 L 66.011719 148.949219 L 74.921875 175.515625 L 60.898438 180.21875 Z M 51.988281 153.648438 " clip-rule="nonzero"/></clipPath><clipPath id="0dd804553b"><path d="M 51.988281 153.648438 L 66.011719 148.949219 L 74.921875 175.515625 L 60.898438 180.21875 Z M 51.988281 153.648438 " clip-rule="nonzero"/></clipPath></defs><g clip-path="url(#bc3a3c468b)"><g clip-path="url(#8bf0523916)"><g clip-path="url(#d47f3b4ad9)"><path fill="#7ed957" d="M 53.511719 173.445312 C 58.257812 176.671875 59.15625 183.621094 59.15625 183.621094 C 59.15625 183.621094 52.296875 185.429688 47.550781 182.199219 C 42.808594 178.96875 41.976562 171.921875 41.976562 171.921875 C 41.976562 171.921875 48.765625 170.214844 53.511719 173.445312 " fill-opacity="1" fill-rule="nonzero"/></g></g></g><g clip-path="url(#2a6c6be6fc)"><g clip-path="url(#2dde78e137)"><g clip-path="url(#f83553a425)"><path fill="#ffd11a" d="M 94.316406 172.734375 C 91.316406 176.578125 85.375 176.957031 85.375 176.957031 C 85.375 176.957031 84.222656 171.039062 87.222656 167.195312 C 90.222656 163.351562 96.242188 163.035156 96.242188 163.035156 C 96.242188 163.035156 97.316406 168.890625 94.316406 172.734375 " fill-opacity="1" fill-rule="nonzero"/></g></g></g><g clip-path="url(#4460d3c83e)"><g clip-path="url(#9fd5945a3c)"><g clip-path="url(#5279d03d0b)"><path fill="#7ed957" d="M 92.835938 195.390625 C 86.433594 198.046875 78.820312 194.359375 78.820312 194.359375 C 78.820312 194.359375 81.53125 186.234375 87.933594 183.574219 C 94.335938 180.917969 102.003906 184.742188 102.003906 184.742188 C 102.003906 184.742188 99.238281 192.734375 92.835938 195.390625 " fill-opacity="1" fill-rule="nonzero"/></g></g></g><g clip-path="url(#cdb192b093)"><g clip-path="url(#98adadf9e1)"><g clip-path="url(#e0d9edf151)"><path fill="#ff66c4" d="M 81.429688 203.644531 C 84.28125 208.316406 82.335938 214.703125 82.335938 214.703125 C 82.335938 214.703125 75.664062 213.578125 72.8125 208.90625 C 69.960938 204.238281 72.007812 197.789062 72.007812 197.789062 C 72.007812 197.789062 78.578125 198.976562 81.429688 203.644531 " fill-opacity="1" fill-rule="nonzero"/></g></g></g><g clip-path="url(#a51c4343a4)"><g clip-path="url(#c051e7e85a)"><g clip-path="url(#ea07afd19b)"><path fill="#04a0fa" d="M 68.0625 194.628906 C 63.925781 199.210938 56.394531 199.152344 56.394531 199.152344 C 56.394531 199.152344 55.46875 191.578125 59.605469 186.992188 C 63.742188 182.410156 71.371094 182.554688 71.371094 182.554688 C 71.371094 182.554688 72.199219 190.042969 68.0625 194.628906 " fill-opacity="1" fill-rule="nonzero"/></g></g></g><g clip-path="url(#8ce3a384b4)"><g clip-path="url(#2148a79122)"><g clip-path="url(#29863304c7)"><path fill="#ffffff" d="M 80.550781 177.183594 C 81.746094 180.660156 79.546875 184.566406 79.546875 184.566406 C 79.546875 184.566406 75.335938 182.863281 74.140625 179.390625 C 72.945312 175.914062 75.21875 171.984375 75.21875 171.984375 C 75.21875 171.984375 79.355469 173.710938 80.550781 177.183594 " fill-opacity="1" fill-rule="nonzero"/></g></g></g><g clip-path="url(#41704ceca1)"><g clip-path="url(#1380129a8d)"><g clip-path="url(#a98d31eed2)"><path fill="#7ed957" d="M 81.285156 163.15625 C 80.375 165.714844 77.300781 166.960938 77.300781 166.960938 C 77.300781 166.960938 75.648438 164.035156 76.558594 161.476562 C 77.46875 158.917969 80.597656 157.691406 80.597656 157.691406 C 80.597656 157.691406 82.195312 160.597656 81.285156 163.15625 " fill-opacity="1" fill-rule="nonzero"/></g></g></g><g clip-path="url(#99e1fbdf9f)"><g clip-path="url(#21a4efd89e)"><g clip-path="url(#fb2c38cc8a)"><path fill="#ffd11a" d="M 90.011719 204.1875 C 87.421875 203.367188 86.074219 200.339844 86.074219 200.339844 C 86.074219 200.339844 88.9375 198.589844 91.527344 199.410156 C 94.117188 200.230469 95.449219 203.316406 95.449219 203.316406 C 95.449219 203.316406 92.601562 205.011719 90.011719 204.1875 " fill-opacity="1" fill-rule="nonzero"/></g></g></g><g clip-path="url(#e1be105553)"><g clip-path="url(#22824baeb7)"><g clip-path="url(#5f3f93d58b)"><path fill="#ffd11a" d="M 46.972656 190.289062 C 50.417969 191.566406 52.050781 195.742188 52.050781 195.742188 C 52.050781 195.742188 48.066406 197.925781 44.621094 196.648438 C 41.175781 195.375 39.570312 191.125 39.570312 191.125 C 39.570312 191.125 43.527344 189.015625 46.972656 190.289062 " fill-opacity="1" fill-rule="nonzero"/></g></g></g><g clip-path="url(#8adedf788c)"><g clip-path="url(#76a180887e)"><g clip-path="url(#5bcb1ac098)"><path fill="#ffffff" d="M 59.976562 213.652344 C 55.984375 216.546875 50.105469 215.257812 50.105469 215.257812 C 50.105469 215.257812 50.636719 209.183594 54.628906 206.285156 C 58.621094 203.386719 64.5625 204.765625 64.5625 204.765625 C 64.5625 204.765625 63.96875 210.753906 59.976562 213.652344 " fill-opacity="1" fill-rule="nonzero"/></g></g></g><g clip-path="url(#e414c324c3)"><g clip-path="url(#c15f1ee80d)"><g clip-path="url(#0dd804553b)"><path fill="#ff66c4" d="M 69.640625 162.371094 C 71.84375 168.941406 67.636719 176.277344 67.636719 176.277344 C 67.636719 176.277344 59.71875 173.007812 57.515625 166.4375 C 55.308594 159.863281 59.65625 152.480469 59.65625 152.480469 C 59.65625 152.480469 67.4375 155.796875 69.640625 162.371094 " fill-opacity="1" fill-rule="nonzero"/></g></g></g><g fill="#e151af" fill-opacity="1"><g transform="translate(120.752385, 190.351092)"><g><path d="M 1.875 0 L 1.875 -26.84375 L 25.53125 -26.84375 C 27.582031 -26.84375 29.179688 -26.519531 30.328125 -25.875 C 31.484375 -25.238281 32.300781 -24.382812 32.78125 -23.3125 C 33.269531 -22.238281 33.515625 -21.050781 33.515625 -19.75 C 33.515625 -18.78125 33.34375 -17.835938 33 -16.921875 C 32.65625 -16.015625 32.125 -15.191406 31.40625 -14.453125 C 32.582031 -13.816406 33.5 -12.945312 34.15625 -11.84375 C 34.820312 -10.75 35.15625 -9.394531 35.15625 -7.78125 C 35.15625 -6.269531 34.847656 -4.925781 34.234375 -3.75 C 33.628906 -2.582031 32.6875 -1.664062 31.40625 -1 C 30.125 -0.332031 28.460938 0 26.421875 0 Z M 7.9375 -16.03125 L 23.578125 -16.03125 C 24.296875 -16.03125 24.941406 -16.070312 25.515625 -16.15625 C 26.085938 -16.25 26.550781 -16.507812 26.90625 -16.9375 C 27.269531 -17.375 27.453125 -18.109375 27.453125 -19.140625 C 27.453125 -20.179688 27.269531 -20.921875 26.90625 -21.359375 C 26.550781 -21.796875 26.085938 -22.054688 25.515625 -22.140625 C 24.941406 -22.234375 24.296875 -22.28125 23.578125 -22.28125 L 7.9375 -22.28125 Z M 7.9375 -4.796875 L 25.1875 -4.796875 C 25.90625 -4.796875 26.554688 -4.835938 27.140625 -4.921875 C 27.734375 -5.015625 28.207031 -5.285156 28.5625 -5.734375 C 28.925781 -6.179688 29.109375 -6.941406 29.109375 -8.015625 C 29.109375 -9.085938 28.925781 -9.847656 28.5625 -10.296875 C 28.207031 -10.742188 27.734375 -11.007812 27.140625 -11.09375 C 26.554688 -11.1875 25.90625 -11.234375 25.1875 -11.234375 L 7.9375 -11.234375 Z M 7.9375 -4.796875 "/></g></g></g><g fill="#e151af" fill-opacity="1"><g transform="translate(157.559147, 190.351092)"><g><path d="M 11.921875 0.390625 C 8.597656 0.390625 6.03125 -0.171875 4.21875 -1.296875 C 2.40625 -2.421875 1.5 -4.265625 1.5 -6.828125 C 1.5 -8.285156 1.863281 -9.507812 2.59375 -10.5 C 3.320312 -11.5 4.316406 -12.296875 5.578125 -12.890625 C 6.847656 -13.492188 8.300781 -13.929688 9.9375 -14.203125 C 11.570312 -14.472656 13.296875 -14.609375 15.109375 -14.609375 C 17.148438 -14.609375 19.109375 -14.441406 20.984375 -14.109375 C 22.867188 -13.773438 24.617188 -13.351562 26.234375 -12.84375 C 26.234375 -14.019531 25.898438 -14.953125 25.234375 -15.640625 C 24.566406 -16.328125 23.726562 -16.832031 22.71875 -17.15625 C 21.707031 -17.476562 20.675781 -17.6875 19.625 -17.78125 C 18.582031 -17.882812 17.675781 -17.9375 16.90625 -17.9375 C 15.425781 -17.9375 13.757812 -17.832031 11.90625 -17.625 C 10.050781 -17.425781 7.921875 -16.957031 5.515625 -16.21875 L 3.375 -20.46875 C 5.675781 -21.21875 7.957031 -21.796875 10.21875 -22.203125 C 12.476562 -22.609375 14.8125 -22.8125 17.21875 -22.8125 C 20.363281 -22.8125 23.039062 -22.445312 25.25 -21.71875 C 27.457031 -20.988281 29.144531 -19.789062 30.3125 -18.125 C 31.476562 -16.46875 32.070312 -14.222656 32.09375 -11.390625 L 32.09375 0 L 26.234375 0 L 26.234375 -2.796875 C 24.179688 -1.929688 21.984375 -1.179688 19.640625 -0.546875 C 17.304688 0.078125 14.734375 0.390625 11.921875 0.390625 Z M 13.578125 -4.0625 C 14.804688 -4.0625 16.164062 -4.1875 17.65625 -4.4375 C 19.15625 -4.695312 20.648438 -5.035156 22.140625 -5.453125 C 23.640625 -5.878906 25.003906 -6.347656 26.234375 -6.859375 L 26.234375 -8.859375 C 24.953125 -9.296875 23.445312 -9.664062 21.71875 -9.96875 C 20 -10.269531 17.988281 -10.421875 15.6875 -10.421875 C 13.125 -10.421875 11.09375 -10.160156 9.59375 -9.640625 C 8.101562 -9.117188 7.359375 -8.21875 7.359375 -6.9375 C 7.359375 -6.039062 7.613281 -5.390625 8.125 -4.984375 C 8.632812 -4.578125 9.351562 -4.320312 10.28125 -4.21875 C 11.21875 -4.113281 12.316406 -4.0625 13.578125 -4.0625 Z M 13.578125 -4.0625 "/></g></g></g><g fill="#e151af" fill-opacity="1"><g transform="translate(191.682074, 190.351092)"><g><path d="M 15.1875 0.390625 C 13.289062 0.390625 11.507812 0.179688 9.84375 -0.234375 C 8.1875 -0.660156 6.734375 -1.332031 5.484375 -2.25 C 4.234375 -3.175781 3.253906 -4.378906 2.546875 -5.859375 C 1.847656 -7.347656 1.5 -9.140625 1.5 -11.234375 C 1.5 -13.359375 1.847656 -15.15625 2.546875 -16.625 C 3.253906 -18.09375 4.234375 -19.28125 5.484375 -20.1875 C 6.734375 -21.09375 8.1875 -21.753906 9.84375 -22.171875 C 11.507812 -22.597656 13.289062 -22.8125 15.1875 -22.8125 C 20.5 -22.8125 24.410156 -21.484375 26.921875 -18.828125 L 26.921875 -30.671875 L 32.78125 -30.671875 L 32.78125 0 L 26.921875 0 L 26.921875 -3.609375 C 25.691406 -2.328125 24.09375 -1.335938 22.125 -0.640625 C 20.15625 0.046875 17.84375 0.390625 15.1875 0.390625 Z M 17.140625 -4.484375 C 20.304688 -4.484375 22.726562 -5.003906 24.40625 -6.046875 C 26.082031 -7.097656 26.921875 -8.828125 26.921875 -11.234375 C 26.921875 -13.609375 26.082031 -15.316406 24.40625 -16.359375 C 22.726562 -17.410156 20.304688 -17.9375 17.140625 -17.9375 C 13.972656 -17.9375 11.550781 -17.410156 9.875 -16.359375 C 8.195312 -15.316406 7.359375 -13.609375 7.359375 -11.234375 C 7.359375 -8.828125 8.195312 -7.097656 9.875 -6.046875 C 11.550781 -5.003906 13.972656 -4.484375 17.140625 -4.484375 Z M 17.140625 -4.484375 "/></g></g></g><g fill="#e151af" fill-opacity="1"><g transform="translate(226.495134, 190.351092)"><g><path d="M 15.1875 0.390625 C 13.289062 0.390625 11.507812 0.179688 9.84375 -0.234375 C 8.1875 -0.660156 6.734375 -1.332031 5.484375 -2.25 C 4.234375 -3.175781 3.253906 -4.378906 2.546875 -5.859375 C 1.847656 -7.347656 1.5 -9.140625 1.5 -11.234375 C 1.5 -13.359375 1.847656 -15.15625 2.546875 -16.625 C 3.253906 -18.09375 4.234375 -19.28125 5.484375 -20.1875 C 6.734375 -21.09375 8.1875 -21.753906 9.84375 -22.171875 C 11.507812 -22.597656 13.289062 -22.8125 15.1875 -22.8125 C 20.5 -22.8125 24.410156 -21.484375 26.921875 -18.828125 L 26.921875 -30.671875 L 32.78125 -30.671875 L 32.78125 0 L 26.921875 0 L 26.921875 -3.609375 C 25.691406 -2.328125 24.09375 -1.335938 22.125 -0.640625 C 20.15625 0.046875 17.84375 0.390625 15.1875 0.390625 Z M 17.140625 -4.484375 C 20.304688 -4.484375 22.726562 -5.003906 24.40625 -6.046875 C 26.082031 -7.097656 26.921875 -8.828125 26.921875 -11.234375 C 26.921875 -13.609375 26.082031 -15.316406 24.40625 -16.359375 C 22.726562 -17.410156 20.304688 -17.9375 17.140625 -17.9375 C 13.972656 -17.9375 11.550781 -17.410156 9.875 -16.359375 C 8.195312 -15.316406 7.359375 -13.609375 7.359375 -11.234375 C 7.359375 -8.828125 8.195312 -7.097656 9.875 -6.046875 C 11.550781 -5.003906 13.972656 -4.484375 17.140625 -4.484375 Z M 17.140625 -4.484375 "/></g></g></g><g fill="#e151af" fill-opacity="1"><g transform="translate(261.308194, 190.351092)"><g><path d="M 1.875 -25.109375 L 1.875 -30.671875 L 7.75 -30.671875 L 7.75 -25.109375 Z M 1.875 0 L 1.875 -22.4375 L 7.75 -22.4375 L 7.75 0 Z M 1.875 0 "/></g></g></g><g fill="#e151af" fill-opacity="1"><g transform="translate(271.085013, 190.351092)"><g><path d="M 16.75 0.390625 C 14.65625 0.390625 12.679688 0.171875 10.828125 -0.265625 C 8.972656 -0.703125 7.347656 -1.382812 5.953125 -2.3125 C 4.566406 -3.25 3.476562 -4.453125 2.6875 -5.921875 C 1.894531 -7.390625 1.5 -9.160156 1.5 -11.234375 C 1.5 -13.972656 2.164062 -16.191406 3.5 -17.890625 C 4.84375 -19.585938 6.691406 -20.832031 9.046875 -21.625 C 11.398438 -22.414062 14.097656 -22.8125 17.140625 -22.8125 C 19.234375 -22.8125 21.207031 -22.609375 23.0625 -22.203125 C 24.914062 -21.796875 26.550781 -21.101562 27.96875 -20.125 C 29.382812 -19.15625 30.5 -17.820312 31.3125 -16.125 C 32.132812 -14.425781 32.546875 -12.285156 32.546875 -9.703125 L 7.484375 -9.703125 C 7.859375 -7.703125 8.882812 -6.316406 10.5625 -5.546875 C 12.238281 -4.785156 14.300781 -4.40625 16.75 -4.40625 C 19.1875 -4.40625 21.195312 -4.679688 22.78125 -5.234375 C 24.363281 -5.785156 25.550781 -6.6875 26.34375 -7.9375 L 32.171875 -7.9375 C 31.398438 -5.125 29.644531 -3.03125 26.90625 -1.65625 C 24.175781 -0.289062 20.789062 0.390625 16.75 0.390625 Z M 7.703125 -13.734375 L 26.296875 -13.734375 C 25.765625 -15.441406 24.6875 -16.617188 23.0625 -17.265625 C 21.4375 -17.921875 19.460938 -18.25 17.140625 -18.25 C 14.585938 -18.25 12.503906 -17.921875 10.890625 -17.265625 C 9.273438 -16.617188 8.210938 -15.441406 7.703125 -13.734375 Z M 7.703125 -13.734375 "/></g></g></g><g fill="#e151af" fill-opacity="1"><g transform="translate(162.672867, 212.47412)"><g><path d="M 3.8125 -3.453125 L 6.046875 -3.453125 L 6.046875 -0.25 C 5.703125 -0.132812 5.347656 -0.0507812 4.984375 0 C 4.617188 0.0625 4.203125 0.09375 3.734375 0.09375 C 2.734375 0.09375 1.953125 -0.203125 1.390625 -0.796875 C 0.835938 -1.390625 0.5625 -2.222656 0.5625 -3.296875 C 0.5625 -3.984375 0.695312 -4.582031 0.96875 -5.09375 C 1.25 -5.613281 1.644531 -6.007812 2.15625 -6.28125 C 2.675781 -6.550781 3.285156 -6.6875 3.984375 -6.6875 C 4.679688 -6.6875 5.335938 -6.554688 5.953125 -6.296875 L 5.65625 -5.625 C 5.050781 -5.875 4.476562 -6 3.9375 -6 C 3.132812 -6 2.503906 -5.757812 2.046875 -5.28125 C 1.597656 -4.800781 1.375 -4.140625 1.375 -3.296875 C 1.375 -2.410156 1.585938 -1.734375 2.015625 -1.265625 C 2.453125 -0.804688 3.09375 -0.578125 3.9375 -0.578125 C 4.394531 -0.578125 4.84375 -0.628906 5.28125 -0.734375 L 5.28125 -2.765625 L 3.8125 -2.765625 Z M 3.8125 -3.453125 "/></g></g></g><g fill="#e151af" fill-opacity="1"><g transform="translate(173.39172, 212.47412)"><g><path d="M 0.90625 0 L 0.90625 -6.59375 L 1.671875 -6.59375 L 1.671875 -0.6875 L 4.578125 -0.6875 L 4.578125 0 Z M 0.90625 0 "/></g></g></g><g fill="#e151af" fill-opacity="1"><g transform="translate(182.179522, 212.47412)"><g><path d="M 6.625 -3.3125 C 6.625 -2.25 6.359375 -1.414062 5.828125 -0.8125 C 5.296875 -0.207031 4.554688 0.09375 3.609375 0.09375 C 2.628906 0.09375 1.875 -0.203125 1.34375 -0.796875 C 0.820312 -1.390625 0.5625 -2.226562 0.5625 -3.3125 C 0.5625 -4.382812 0.828125 -5.21875 1.359375 -5.8125 C 1.890625 -6.40625 2.640625 -6.703125 3.609375 -6.703125 C 4.554688 -6.703125 5.296875 -6.398438 5.828125 -5.796875 C 6.359375 -5.191406 6.625 -4.363281 6.625 -3.3125 Z M 1.375 -3.3125 C 1.375 -2.414062 1.5625 -1.734375 1.9375 -1.265625 C 2.320312 -0.804688 2.878906 -0.578125 3.609375 -0.578125 C 4.335938 -0.578125 4.882812 -0.804688 5.25 -1.265625 C 5.625 -1.734375 5.8125 -2.414062 5.8125 -3.3125 C 5.8125 -4.195312 5.625 -4.867188 5.25 -5.328125 C 4.882812 -5.785156 4.335938 -6.015625 3.609375 -6.015625 C 2.878906 -6.015625 2.320312 -5.78125 1.9375 -5.3125 C 1.5625 -4.851562 1.375 -4.1875 1.375 -3.3125 Z M 1.375 -3.3125 "/></g></g></g><g fill="#e151af" fill-opacity="1"><g transform="translate(193.367604, 212.47412)"><g><path d="M 0.90625 -6.59375 L 2.765625 -6.59375 C 3.640625 -6.59375 4.269531 -6.460938 4.65625 -6.203125 C 5.050781 -5.941406 5.25 -5.523438 5.25 -4.953125 C 5.25 -4.566406 5.140625 -4.242188 4.921875 -3.984375 C 4.703125 -3.734375 4.382812 -3.570312 3.96875 -3.5 L 3.96875 -3.453125 C 4.96875 -3.285156 5.46875 -2.757812 5.46875 -1.875 C 5.46875 -1.28125 5.269531 -0.816406 4.875 -0.484375 C 4.476562 -0.160156 3.921875 0 3.203125 0 L 0.90625 0 Z M 1.671875 -3.765625 L 2.9375 -3.765625 C 3.476562 -3.765625 3.863281 -3.847656 4.09375 -4.015625 C 4.332031 -4.191406 4.453125 -4.484375 4.453125 -4.890625 C 4.453125 -5.253906 4.320312 -5.515625 4.0625 -5.671875 C 3.800781 -5.835938 3.378906 -5.921875 2.796875 -5.921875 L 1.671875 -5.921875 Z M 1.671875 -3.125 L 1.671875 -0.65625 L 3.046875 -0.65625 C 3.578125 -0.65625 3.976562 -0.753906 4.25 -0.953125 C 4.519531 -1.160156 4.65625 -1.488281 4.65625 -1.9375 C 4.65625 -2.34375 4.515625 -2.640625 4.234375 -2.828125 C 3.960938 -3.023438 3.546875 -3.125 2.984375 -3.125 Z M 1.671875 -3.125 "/></g></g></g><g fill="#e151af" fill-opacity="1"><g transform="translate(203.34652, 212.47412)"><g><path d="M 5.046875 0 L 4.234375 -2.09375 L 1.59375 -2.09375 L 0.78125 0 L 0 0 L 2.609375 -6.625 L 3.25 -6.625 L 5.84375 0 Z M 3.984375 -2.78125 L 3.21875 -4.828125 C 3.125 -5.085938 3.023438 -5.40625 2.921875 -5.78125 C 2.847656 -5.488281 2.753906 -5.171875 2.640625 -4.828125 L 1.859375 -2.78125 Z M 3.984375 -2.78125 "/></g></g></g><g fill="#e151af" fill-opacity="1"><g transform="translate(213.18557, 212.47412)"><g><path d="M 0.90625 0 L 0.90625 -6.59375 L 1.671875 -6.59375 L 1.671875 -0.6875 L 4.578125 -0.6875 L 4.578125 0 Z M 0.90625 0 "/></g></g></g><g fill="#e151af" fill-opacity="1"><g transform="translate(221.97337, 212.47412)"><g/></g></g><g fill="#e151af" fill-opacity="1"><g transform="translate(228.365403, 212.47412)"><g><path d="M 2.9375 0 L 2.171875 0 L 2.171875 -5.90625 L 0.078125 -5.90625 L 0.078125 -6.59375 L 5.015625 -6.59375 L 5.015625 -5.90625 L 2.9375 -5.90625 Z M 2.9375 0 "/></g></g></g><g fill="#e151af" fill-opacity="1"><g transform="translate(237.469029, 212.47412)"><g><path d="M 4.578125 0 L 0.90625 0 L 0.90625 -6.59375 L 4.578125 -6.59375 L 4.578125 -5.90625 L 1.671875 -5.90625 L 1.671875 -3.78125 L 4.40625 -3.78125 L 4.40625 -3.109375 L 1.671875 -3.109375 L 1.671875 -0.6875 L 4.578125 -0.6875 Z M 4.578125 0 "/></g></g></g><g fill="#e151af" fill-opacity="1"><g transform="translate(246.599726, 212.47412)"><g><path d="M 3.734375 -6 C 3.003906 -6 2.429688 -5.753906 2.015625 -5.265625 C 1.597656 -4.785156 1.390625 -4.128906 1.390625 -3.296875 C 1.390625 -2.429688 1.585938 -1.765625 1.984375 -1.296875 C 2.390625 -0.828125 2.96875 -0.59375 3.71875 -0.59375 C 4.175781 -0.59375 4.703125 -0.675781 5.296875 -0.84375 L 5.296875 -0.171875 C 4.835938 0.00390625 4.273438 0.09375 3.609375 0.09375 C 2.628906 0.09375 1.875 -0.195312 1.34375 -0.78125 C 0.820312 -1.375 0.5625 -2.21875 0.5625 -3.3125 C 0.5625 -3.988281 0.6875 -4.582031 0.9375 -5.09375 C 1.195312 -5.601562 1.566406 -5.992188 2.046875 -6.265625 C 2.523438 -6.546875 3.085938 -6.6875 3.734375 -6.6875 C 4.429688 -6.6875 5.035156 -6.5625 5.546875 -6.3125 L 5.21875 -5.65625 C 4.726562 -5.882812 4.234375 -6 3.734375 -6 Z M 3.734375 -6 "/></g></g></g><g fill="#e151af" fill-opacity="1"><g transform="translate(256.420729, 212.47412)"><g><path d="M 5.90625 0 L 5.140625 0 L 5.140625 -3.109375 L 1.671875 -3.109375 L 1.671875 0 L 0.90625 0 L 0.90625 -6.59375 L 1.671875 -6.59375 L 1.671875 -3.78125 L 5.140625 -3.78125 L 5.140625 -6.59375 L 5.90625 -6.59375 Z M 5.90625 0 "/></g></g></g></svg>